<?xml version="1.0" encoding="UTF-8"?>
<svg width="256px" height="256px" viewBox="0 0 256 256" version="1.1" xmlns="http://www.w3.org/2000/svg" xmlns:xlink="http://www.w3.org/1999/xlink">
    <!-- Generator: Sketch 48.2 (47327) - http://www.bohemiancoding.com/sketch -->
    <title>doggo-square-logo</title>
    <desc>Created with Sketch.</desc>
    <defs></defs>
    <g id="Page-1" stroke="none" stroke-width="1" fill="none" fill-rule="evenodd">
        <g id="doggo-square-logo">
            <text id="DoggoAI" font-family="HarmoniaSansW01-Semibold" font-size="64" font-weight="500" letter-spacing="-1.79999995">
                <tspan x="7" y="206" fill="#9013FE">Doggo</tspan>
                <tspan x="194.48" y="206" fill="#FF0000">A</tspan>
                <tspan x="234.408" y="206" fill="#FF0000">I</tspan>
            </text>
            <g id="Doggo" transform="translate(22.000000, 21.000000)" stroke="#3A006C" stroke-width="7">
                <polyline id="Path" points="0.306640625 98.90625 127.4375 28.1503906 176.746094 80.1054688 203.267578 80.1054688 199.124558 93.7431209 188.8125 127.6875 127.4375 127.6875"></polyline>
                <polyline id="Path-2" points="55.6621094 68.0058594 71.265625 6.62890625 105.453125 40.3125"></polyline>
                <polyline id="Path-3" points="90.6523438 24.5058594 99.28125 0.74609375 127.474609 28.3730469"></polyline>
                <path d="M73.5703125,96.6582031 C75.3766059,107.547667 78.8141059,115.360818 83.8828125,120.097656 C91.4858724,127.202914 95.6787377,128.945041 110.470703,131.142578 C120.332013,132.607603 126.832339,131.006122 129.97168,126.338135" id="Path-4"></path>
                <polyline id="Path-5" points="117.878906 64.5488281 135.640625 64.5488281 135.640625 80.6308594"></polyline>
            </g>
        </g>
    </g>
</svg>