<?xml version="1.0" encoding="UTF-8"?>
<svg width="400px" height="210px" viewBox="0 0 400 210" version="1.1" xmlns="http://www.w3.org/2000/svg" xmlns:xlink="http://www.w3.org/1999/xlink">
    <!-- Generator: Sketch 49 (51002) - http://www.bohemiancoding.com/sketch -->
    <title>doggo-large-image</title>
    <desc>Created with Sketch.</desc>
    <defs></defs>
    <g id="doggo-large-image" stroke="none" stroke-width="1" fill="none" fill-rule="evenodd">
        <path d="M121.352,139.264 C124.296015,139.264 126.887989,139.695996 129.128,140.56 C131.368011,141.424004 133.239992,142.599993 134.744,144.088 C136.248008,145.576007 137.383996,147.31199 138.152,149.296 C138.920004,151.28001 139.304,153.391989 139.304,155.632 C139.304,157.840011 138.904004,159.93599 138.104,161.92 C137.303996,163.90401 136.136008,165.639993 134.6,167.128 C133.063992,168.616007 131.176011,169.799996 128.936,170.68 C126.695989,171.560004 124.136014,172 121.256,172 L110.408,172 L110.408,139.264 L121.352,139.264 Z M121.256,166.96 C123.33601,166.96 125.143992,166.664003 126.68,166.072 C128.216008,165.479997 129.487995,164.664005 130.496,163.624 C131.504005,162.583995 132.255998,161.376007 132.752,160 C133.248002,158.623993 133.496,157.168008 133.496,155.632 C133.496,153.967992 133.232003,152.440007 132.704,151.048 C132.175997,149.655993 131.400005,148.464005 130.376,147.472 C129.351995,146.479995 128.080008,145.704003 126.56,145.144 C125.039992,144.583997 123.27201,144.304 121.256,144.304 L116.072,144.304 L116.072,166.96 L121.256,166.96 Z M141.17,160.48 C141.17,158.719991 141.481997,157.088008 142.106,155.584 C142.730003,154.079992 143.593995,152.784005 144.698,151.696 C145.802006,150.607995 147.105993,149.760003 148.61,149.152 C150.114008,148.543997 151.729991,148.24 153.458,148.24 C155.250009,148.24 156.897993,148.551997 158.402,149.176 C159.906008,149.800003 161.201995,150.655995 162.29,151.744 C163.378006,152.832005 164.225997,154.127992 164.834,155.632 C165.442003,157.136008 165.746,158.751991 165.746,160.48 C165.746,162.176008 165.442003,163.767993 164.834,165.256 C164.225997,166.744007 163.378006,168.047994 162.29,169.168 C161.201995,170.288006 159.906008,171.175997 158.402,171.832 C156.897993,172.488003 155.250009,172.816 153.458,172.816 C151.697991,172.816 150.074008,172.496003 148.586,171.856 C147.097993,171.215997 145.802006,170.344006 144.698,169.24 C143.593995,168.135994 142.730003,166.832008 142.106,165.328 C141.481997,163.823992 141.17,162.208009 141.17,160.48 Z M146.642,160.48 C146.642,161.600006 146.825998,162.615995 147.194,163.528 C147.562002,164.440005 148.057997,165.231997 148.682,165.904 C149.306003,166.576003 150.025996,167.095998 150.842,167.464 C151.658004,167.832002 152.529995,168.016 153.458,168.016 C154.482005,168.016 155.417996,167.824002 156.266,167.44 C157.114004,167.055998 157.833997,166.528003 158.426,165.856 C159.018003,165.183997 159.481998,164.384005 159.818,163.456 C160.154002,162.527995 160.322,161.536005 160.322,160.48 C160.322,159.455995 160.162002,158.488005 159.842,157.576 C159.521998,156.663995 159.066003,155.872003 158.474,155.2 C157.881997,154.527997 157.162004,153.992002 156.314,153.592 C155.465996,153.191998 154.514005,152.992 153.458,152.992 C152.433995,152.992 151.498004,153.183998 150.65,153.568 C149.801996,153.952002 149.082003,154.479997 148.49,155.152 C147.897997,155.824003 147.442002,156.615995 147.122,157.528 C146.801998,158.440005 146.642,159.423995 146.642,160.48 Z M191.852,171.28 C191.852,175.504021 190.86801,178.735989 188.9,180.976 C186.93199,183.216011 183.868021,184.336 179.708,184.336 C176.475984,184.336 173.86801,183.520008 171.884,181.888 C169.89999,180.255992 168.684002,178.064014 168.236,175.312 L173.612,175.312 C173.932002,176.592006 174.579995,177.671996 175.556,178.552 C176.532005,179.432004 177.99599,179.872 179.948,179.872 C182.156011,179.872 183.835994,179.192007 184.988,177.832 C186.140006,176.471993 186.716,174.512013 186.716,171.952 L186.716,169.072 L186.62,169.072 C185.787996,170.000005 184.740007,170.823996 183.476,171.544 C182.211994,172.264004 180.652009,172.624 178.796,172.624 C177.291993,172.624 175.860007,172.344003 174.5,171.784 C173.139993,171.223997 171.948005,170.416005 170.924,169.36 C169.899995,168.303995 169.084003,167.024008 168.476,165.52 C167.867997,164.015992 167.564,162.320009 167.564,160.432 C167.564,158.671991 167.851997,157.056007 168.428,155.584 C169.004003,154.111993 169.795995,152.832005 170.804,151.744 C171.812005,150.655995 173.019993,149.808003 174.428,149.2 C175.836007,148.591997 177.355992,148.288 178.988,148.288 C179.980005,148.288 180.867996,148.399999 181.652,148.624 C182.436004,148.848001 183.139997,149.143998 183.764,149.512 C184.388003,149.880002 184.931998,150.279998 185.396,150.712 C185.860003,151.144002 186.251999,151.567998 186.572,151.984 L186.716,151.984 L186.716,149.008 L191.852,149.008 L191.852,171.28 Z M173.036,160.432 C173.036,161.360005 173.179999,162.271996 173.468,163.168 C173.756002,164.064004 174.187997,164.863996 174.764,165.568 C175.340003,166.272004 176.059996,166.839998 176.924,167.272 C177.788005,167.704002 178.795994,167.92 179.948,167.92 C180.876005,167.92 181.755996,167.736002 182.588,167.368 C183.420004,166.999998 184.147997,166.496003 184.772,165.856 C185.396003,165.215997 185.891998,164.440005 186.26,163.528 C186.628002,162.615995 186.812,161.616005 186.812,160.528 C186.812,159.375994 186.636002,158.328005 186.284,157.384 C185.931998,156.439995 185.452003,155.640003 184.844,154.984 C184.235997,154.327997 183.524004,153.816002 182.708,153.448 C181.891996,153.079998 181.004005,152.896 180.044,152.896 C178.891994,152.896 177.876005,153.111998 176.996,153.544 C176.115996,153.976002 175.380003,154.551996 174.788,155.272 C174.195997,155.992004 173.756002,156.799996 173.468,157.696 C173.179999,158.592004 173.036,159.503995 173.036,160.432 Z M219.494,171.28 C219.494,175.504021 218.51001,178.735989 216.542,180.976 C214.57399,183.216011 211.510021,184.336 207.35,184.336 C204.117984,184.336 201.51001,183.520008 199.526,181.888 C197.54199,180.255992 196.326003,178.064014 195.878,175.312 L201.254,175.312 C201.574002,176.592006 202.221995,177.671996 203.198,178.552 C204.174005,179.432004 205.637991,179.872 207.59,179.872 C209.798011,179.872 211.477995,179.192007 212.63,177.832 C213.782006,176.471993 214.358,174.512013 214.358,171.952 L214.358,169.072 L214.262,169.072 C213.429996,170.000005 212.382007,170.823996 211.118,171.544 C209.853994,172.264004 208.29401,172.624 206.438,172.624 C204.933993,172.624 203.502007,172.344003 202.142,171.784 C200.781993,171.223997 199.590005,170.416005 198.566,169.36 C197.541995,168.303995 196.726003,167.024008 196.118,165.52 C195.509997,164.015992 195.206,162.320009 195.206,160.432 C195.206,158.671991 195.493997,157.056007 196.07,155.584 C196.646003,154.111993 197.437995,152.832005 198.446,151.744 C199.454005,150.655995 200.661993,149.808003 202.07,149.2 C203.478007,148.591997 204.997992,148.288 206.63,148.288 C207.622005,148.288 208.509996,148.399999 209.294,148.624 C210.078004,148.848001 210.781997,149.143998 211.406,149.512 C212.030003,149.880002 212.573998,150.279998 213.038,150.712 C213.502003,151.144002 213.893999,151.567998 214.214,151.984 L214.358,151.984 L214.358,149.008 L219.494,149.008 L219.494,171.28 Z M200.678,160.432 C200.678,161.360005 200.821999,162.271996 201.11,163.168 C201.398002,164.064004 201.829997,164.863996 202.406,165.568 C202.982003,166.272004 203.701996,166.839998 204.566,167.272 C205.430005,167.704002 206.437995,167.92 207.59,167.92 C208.518005,167.92 209.397996,167.736002 210.23,167.368 C211.062004,166.999998 211.789997,166.496003 212.414,165.856 C213.038003,165.215997 213.533998,164.440005 213.902,163.528 C214.270002,162.615995 214.454,161.616005 214.454,160.528 C214.454,159.375994 214.278002,158.328005 213.926,157.384 C213.573999,156.439995 213.094003,155.640003 212.486,154.984 C211.877997,154.327997 211.166004,153.816002 210.35,153.448 C209.533996,153.079998 208.646005,152.896 207.686,152.896 C206.533995,152.896 205.518005,153.111998 204.638,153.544 C203.757996,153.976002 203.022003,154.551996 202.43,155.272 C201.837997,155.992004 201.398002,156.799996 201.11,157.696 C200.821999,158.592004 200.678,159.503995 200.678,160.432 Z M222.8,160.48 C222.8,158.719991 223.111997,157.088008 223.736,155.584 C224.360004,154.079992 225.223995,152.784005 226.328,151.696 C227.432006,150.607995 228.735993,149.760003 230.24,149.152 C231.744008,148.543997 233.359992,148.24 235.088,148.24 C236.880009,148.24 238.527993,148.551997 240.032,149.176 C241.536008,149.800003 242.831995,150.655995 243.92,151.744 C245.008006,152.832005 245.855997,154.127992 246.464,155.632 C247.072003,157.136008 247.376,158.751991 247.376,160.48 C247.376,162.176008 247.072003,163.767993 246.464,165.256 C245.855997,166.744007 245.008006,168.047994 243.92,169.168 C242.831995,170.288006 241.536008,171.175997 240.032,171.832 C238.527993,172.488003 236.880009,172.816 235.088,172.816 C233.327992,172.816 231.704008,172.496003 230.216,171.856 C228.727993,171.215997 227.432006,170.344006 226.328,169.24 C225.223995,168.135994 224.360004,166.832008 223.736,165.328 C223.111997,163.823992 222.8,162.208009 222.8,160.48 Z M228.272,160.48 C228.272,161.600006 228.455999,162.615995 228.824,163.528 C229.192002,164.440005 229.687997,165.231997 230.312,165.904 C230.936004,166.576003 231.655996,167.095998 232.472,167.464 C233.288004,167.832002 234.159996,168.016 235.088,168.016 C236.112006,168.016 237.047996,167.824002 237.896,167.44 C238.744005,167.055998 239.463997,166.528003 240.056,165.856 C240.648003,165.183997 241.111999,164.384005 241.448,163.456 C241.784002,162.527995 241.952,161.536005 241.952,160.48 C241.952,159.455995 241.792002,158.488005 241.472,157.576 C241.151999,156.663995 240.696003,155.872003 240.104,155.2 C239.511997,154.527997 238.792005,153.992002 237.944,153.592 C237.095996,153.191998 236.144006,152.992 235.088,152.992 C234.063995,152.992 233.128005,153.183998 232.28,153.568 C231.431996,153.952002 230.712003,154.479997 230.12,155.152 C229.527997,155.824003 229.072002,156.615995 228.752,157.528 C228.431999,158.440005 228.272,159.423995 228.272,160.48 Z M260.954,139.264 L266.138,139.264 L278.57,172 L272.666,172 L269.738,163.984 L256.682,163.984 L253.706,172 L247.946,172 L260.954,139.264 Z M258.17,159.664 L268.25,159.664 L265.226,151.264 C264.873999,150.335995 264.546002,149.376005 264.242,148.384 C263.937999,147.391995 263.658002,146.464004 263.402,145.6 L263.162,145.6 C262.905999,146.496004 262.610002,147.447995 262.274,148.456 C261.937999,149.464005 261.594002,150.415996 261.242,151.312 L258.17,159.664 Z M281.253501,139.264 L286.917501,139.264 L286.917501,172 L281.253501,172 L281.253501,139.264 Z" id="DoggoAI" fill="#9013FE"></path>
        <g id="Doggo" transform="translate(87.000000, 23.000000)">
            <path d="M0,72.0849047 C86.5533854,19.7574682 131.800456,-3.76595052 135.741211,1.51464844 C139.681966,6.7952474 155.385417,24.0225952 182.851562,53.1966917 C187.054687,53.1966917 194.123698,53.1966917 204.058594,53.1966917 C204.058594,60.8144531 198.643283,92.4166712 182.851562,101 C170.39272,101 151.857962,101 127.247289,101" id="Head" stroke="#3A006C" stroke-width="7"></path>
            <path d="M74,81 C76.4578797,88.5544999 80.2291438,93.855994 85.3137922,96.9044823 C90.3984406,99.9529707 105.627177,101.299608 131,100.944394" id="Cheek" stroke="#3A006C" stroke-width="7"></path>
            <path d="M119,29.5650634 C108.515299,17.2659678 95.2141927,9.10235281 79.0966797,5.07421841 C63.8974609,29.3925778 50.8652344,47.3421222 40,58.9228516 C67.2851562,58.9228512 95.3632812,58.9384762 119,29.5650634 Z" id="Solid-Ear" fill="#3A006C" transform="translate(79.500000, 31.998535) scale(-1, -1) translate(-79.500000, -31.998535) "></path>
        </g>
    </g>
</svg>